<svg width="40" height="40" viewBox="0 0 40 40" fill="none" xmlns="http://www.w3.org/2000/svg">
<path d="M20 0C8.954 0 0 8.954 0 20C0 31.046 8.954 40 20 40C31.046 40 40 31.046 40 20C40 8.954 31.046 0 20 0Z" fill="url(#paint0_linear_994_1265)"/>
<path d="M22.7071 25.301H27.8831L28.6961 20.043H22.7071V17.169C22.7071 14.985 23.4211 13.048 25.4641 13.048H28.7471V8.46004C28.1701 8.38204 26.9501 8.21204 24.6451 8.21204C19.8311 8.21204 17.0091 10.754 17.0091 16.546V20.044H12.0601V25.302H17.0081V39.754C17.9881 39.9 18.9811 40 20.0001 40C20.9211 40 21.8201 39.916 22.7071 39.796V25.301Z" fill="white"/>
<defs>
<linearGradient id="paint0_linear_994_1265" x1="5.993" y1="5.993" x2="36.615" y2="36.615" gradientUnits="userSpaceOnUse">
<stop stop-color="#2AA4F4"/>
<stop offset="1" stop-color="#007AD9"/>
</linearGradient>
</defs>
</svg>
